<svg width="26" height="26" viewBox="0 0 26 26" fill="none" xmlns="http://www.w3.org/2000/svg">
<path d="M18.5308 16.1445H17.3647L16.9515 15.7629C18.3979 14.1517 19.2688 12.06 19.2688 9.7845C19.2688 4.71067 14.9736 0.5979 9.6748 0.5979C4.37597 0.5979 0.0808105 4.71067 0.0808105 9.7845C0.0808105 14.8583 4.37597 18.9711 9.6748 18.9711C12.0512 18.9711 14.2356 18.1372 15.9183 16.7522L16.3168 17.1479V18.2644L23.6968 25.3169L25.896 23.2111L18.5308 16.1445ZM9.6748 16.1445C5.99956 16.1445 3.03281 13.3037 3.03281 9.7845C3.03281 6.26533 5.99956 3.42455 9.6748 3.42455C13.35 3.42455 16.3168 6.26533 16.3168 9.7845C16.3168 13.3037 13.35 16.1445 9.6748 16.1445Z" fill="black"/>
</svg>
